<svg width="58" height="35" viewBox="0 0 58 35" fill="none" xmlns="http://www.w3.org/2000/svg">
<path d="M16.7129 12.4961C16.7086 13.2044 16.7619 13.7714 16.9007 14.2539C17.0403 14.5948 17.2359 15.0493 17.4878 15.5608C17.6005 15.6748 17.6278 15.845 17.6269 15.9866C17.6257 16.185 17.5114 16.3543 17.2552 16.5511L16.0604 17.3373C15.8898 17.4496 15.7194 17.5052 15.5778 17.5043C15.3794 17.5032 15.2101 17.3888 15.0128 17.2176C14.7595 16.9328 14.5346 16.6481 14.3381 16.3352C14.17 16.0225 13.9739 15.653 13.7781 15.2268C12.2944 16.9463 10.4475 17.8135 8.20918 17.8C6.62254 17.7905 5.37862 17.3297 4.44909 16.4174C3.54789 15.5053 3.07356 14.2841 3.08277 12.7541C3.09214 11.1958 3.66647 9.92423 4.80591 8.91107C5.97336 7.95474 7.5064 7.45395 9.43303 7.46554C10.0847 7.46946 10.6793 7.5297 11.4436 7.64764C12.0948 7.73656 12.8589 7.88282 13.5945 8.05725L13.6027 6.69727C13.6114 5.2523 13.3337 4.31561 12.7426 3.66038C12.1229 3.06164 11.1328 2.80068 9.68781 2.79199C9.00782 2.7879 8.32732 2.8688 7.64648 3.00638C6.93714 3.17211 6.25596 3.36635 5.6026 3.64576C5.29026 3.75722 5.03475 3.84068 4.94958 3.86851C4.80758 3.92432 4.72258 3.92381 4.63758 3.9233C4.38258 3.92176 4.24194 3.75091 4.24433 3.35425L4.24995 2.41927C4.25166 2.13594 4.28135 1.90945 4.39554 1.76847C4.48139 1.62731 4.65207 1.51501 4.90757 1.43154C5.58995 1.03897 6.35664 0.760244 7.29298 0.539206C8.2563 0.29351 9.24775 0.175632 10.2418 0.188605C12.4801 0.202068 14.1203 0.721944 15.1625 1.74823C16.2047 2.77452 16.7053 4.33589 16.6929 6.40419L16.6562 12.4957L16.7129 12.4961ZM9.04565 15.34C9.66898 15.3438 10.293 15.2342 10.9743 15.0116C11.6557 14.789 12.2532 14.3676 12.7666 13.804C13.0805 13.4376 13.3096 13.0423 13.4823 12.59C13.485 12.1367 13.6299 11.5992 13.6338 10.9475L13.6384 10.1826C13.073 9.98081 12.5063 9.9774 11.8838 9.83199C11.3006 9.76472 10.7147 9.72338 10.1279 9.70809C8.85291 9.70042 7.94472 9.94997 7.31833 10.4562C6.69194 10.9624 6.40435 11.6691 6.39873 12.604C6.39328 13.5107 6.58752 14.1919 7.06662 14.6198C7.51704 15.1042 8.16734 15.3347 9.04565 15.34ZM24.1633 17.4427C23.8889 17.4492 23.6171 17.3892 23.371 17.2679C23.2868 17.1257 23.1467 16.8699 23.0354 16.5292L18.7031 1.93953C18.5923 1.51386 18.5369 1.31519 18.5377 1.17352C18.5396 0.861862 18.6823 0.692717 18.9939 0.694592L20.8356 0.705669C21.2039 0.707885 21.4585 0.766085 21.571 0.908431C21.7403 1.02278 21.8521 1.27846 21.9633 1.64747L25.0332 14.1328L28.0548 1.68411C28.142 1.3163 28.2569 1.06198 28.4276 0.949674C28.5699 0.837195 28.8254 0.75373 29.1371 0.755605L30.6954 0.764978C31.0354 0.767023 31.29 0.825223 31.4308 0.967739C31.5718 1.08192 31.712 1.33777 31.7947 1.70661L34.722 14.3611L38.028 1.7441C38.1435 1.37646 38.2867 1.12231 38.4007 1.00966C38.5714 0.897356 38.7986 0.81372 39.1386 0.815765L40.8952 0.826332C41.2069 0.828207 41.3758 0.999226 41.374 1.31089C41.3735 1.39589 41.3444 1.50905 41.3153 1.65054C41.3153 1.65054 41.2572 1.87686 41.1994 2.07485L36.5502 16.6105C36.4345 17.0065 36.3199 17.2041 36.1208 17.3446C36.0067 17.4572 35.7512 17.5407 35.4396 17.5388L33.8246 17.5291C33.4563 17.5269 33.2866 17.4692 33.0608 17.3262C32.8715 17.1231 32.7537 16.8637 32.7252 16.5875L29.8801 4.41514L26.8889 16.524C26.8016 16.8919 26.6868 17.1462 26.5443 17.287C26.3096 17.413 26.0441 17.4704 25.7783 17.4524L24.1633 17.4427ZM48.3848 18.0984C47.4498 18.0927 46.4022 17.9731 45.4685 17.7408C44.5349 17.5085 43.7998 17.2491 43.3197 16.9912C43.0743 16.8714 42.8688 16.6832 42.7279 16.4493C42.6519 16.29 42.6141 16.1151 42.6177 15.9386L42.6235 14.9753C42.6258 14.5787 42.7685 14.4095 43.0519 14.4112L43.3919 14.4133C43.5052 14.4139 43.6743 14.5566 43.8721 14.6428C44.4938 14.9299 45.2007 15.1608 45.9365 15.3069C46.7007 15.4532 47.4651 15.5428 48.1735 15.547C49.3634 15.5542 50.2996 15.3615 50.9255 14.9403C51.58 14.4625 51.9233 13.9262 51.9279 13.1613C51.9311 12.6229 51.7353 12.1967 51.4259 11.8265C51.0879 11.4845 50.4383 11.1406 49.5334 10.8518L46.7902 9.98529C45.433 9.52379 44.4167 8.89433 43.7985 8.04059C43.195 7.25013 42.8718 6.28119 42.8801 5.28669C42.8849 4.49337 43.0589 3.8144 43.4025 3.22146C43.7463 2.60018 44.2026 2.09292 44.7152 1.67099C45.3411 1.24975 45.9663 0.941836 46.7326 0.719775C47.4706 0.497544 48.2646 0.388985 49.1146 0.394098C49.5113 0.396484 49.9361 0.427373 50.3891 0.486766C50.7854 0.545818 51.1816 0.633201 51.5779 0.692253C51.9738 0.80797 52.3133 0.895014 52.6526 1.01039C52.992 1.12577 53.2179 1.24046 53.4439 1.35516C53.6981 1.49835 53.8955 1.64121 54.0078 1.81189C54.1202 1.98257 54.1756 2.18124 54.1741 2.43624L54.1686 3.34289C54.1663 3.73955 54.0234 3.93702 53.7401 3.93532C53.5984 3.93447 53.3439 3.84793 53.0048 3.70422C51.9594 3.21626 50.7426 2.95394 49.4109 2.94593C48.3343 2.93945 47.54 3.10468 46.8861 3.46908C46.3174 3.80567 46.0023 4.37045 45.9977 5.13544C45.9945 5.67376 46.1901 6.12828 46.5564 6.47049C46.9225 6.84103 47.6287 7.18529 48.6183 7.53125L51.3049 8.39742C52.6624 8.80226 53.622 9.43138 54.2122 10.2283C54.7743 10.9967 55.0523 11.8767 55.0464 12.8683C55.0416 13.6617 54.8672 14.3973 54.5516 15.0471C54.2078 15.6683 53.7511 16.2323 53.1251 16.6819C52.5838 17.1603 51.8735 17.496 51.0786 17.7462C50.2838 17.9965 49.3198 18.104 48.3848 18.0984ZM51.8712 27.2995C45.6388 31.8238 36.6143 34.2062 28.9361 34.16C18.028 34.0944 8.27738 30.0123 0.922568 23.3096C0.330817 22.7677 0.873402 22.0627 1.57917 22.4919C9.54124 27.1582 19.3559 30.0223 29.5557 30.0837C36.4406 30.1251 44.0139 28.7539 50.9735 25.7924C52.0244 25.3737 52.8957 26.5407 51.8712 27.2995ZM54.4953 24.3969C53.68 23.3436 49.2285 23.8552 47.2155 24.0698C46.62 24.1512 46.5382 23.6124 47.079 23.2189C50.6354 20.7753 56.4673 21.5754 57.1144 22.3443C57.7893 23.1984 56.9042 29.0298 53.5725 31.7865C53.0317 32.2082 52.5514 31.9787 52.7811 31.4701C53.5577 29.548 55.2545 25.3648 54.4953 24.3969Z" fill="white"/>
</svg>
