<svg width="149" height="40" viewBox="0 0 149 40" fill="none" xmlns="http://www.w3.org/2000/svg">
<g clip-path="url(#clip0_12771_5194)">
<path d="M64.6832 9.05739V13.7736H57.9909V30.9404H53.1953V9.05739H64.6809H64.6832ZM84.1607 9.05739H88.9562V30.9404H84.1607V27.5448C82.2639 30.1444 79.7197 31.4419 76.5303 31.4649C73.4667 31.4649 70.9019 30.3745 68.8793 28.1751C66.8362 25.9735 65.8157 23.2496 65.8157 19.9782C65.8157 16.7068 66.8362 14.0036 68.8793 11.8043C70.9019 9.62333 73.4644 8.53516 76.5303 8.53516C79.5962 8.53516 82.2639 9.83498 84.1607 12.4346V9.05969V9.05739ZM82.2434 24.8623C83.5155 23.5625 84.1607 21.9268 84.1607 19.9782C84.1607 18.0296 83.5155 16.4146 82.2434 15.1148C80.9712 13.815 79.3674 13.1662 77.4707 13.1662C75.5739 13.1662 73.9266 13.815 72.6545 15.1148C71.3618 16.4146 70.7166 18.0273 70.7166 19.9782C70.7166 21.9291 71.3618 23.5625 72.6545 24.8623C73.9266 26.1621 75.5305 26.8109 77.4707 26.8109C79.4109 26.8109 80.9735 26.1598 82.2434 24.8623ZM106.988 9.05739H111.783V30.9404H91.6675V9.05739H96.4631V26.3094H106.99V9.05739H106.988ZM148.718 9.05739V30.9404H143.922V13.6907H133.938V30.9427H129.165V13.6907H119.18V30.9427H114.385V9.05739H148.718Z" fill="white"/>
<path d="M17.9011 8.99983H8.95053V0H17.9011V8.99983ZM8.95053 8.99983H0V17.9997H8.95053V8.99983ZM17.9011 40V31.0002H8.95053V40H17.9011ZM8.95053 31.0002V22.0003H0V31.0002H8.95053ZM21.8798 8.99983H30.8304V0H21.8798V8.99983ZM30.8304 17.9997H39.7809V8.99983H30.8304V17.9997ZM15.3157 15.4V24.3998H24.2662V15.4H15.3157ZM30.8304 40V31.0002H21.8798V40H30.8304ZM39.7809 31.0002V22.0003H30.8304V31.0002H39.7809Z" fill="#0000FF"/>
</g>
<defs>
<clipPath id="clip0_12771_5194">
<rect width="148.718" height="40" fill="white"/>
</clipPath>
</defs>
</svg>
